<svg width="482" height="162" viewBox="0 0 482 162" fill="none" xmlns="http://www.w3.org/2000/svg">
<path d="M103.25 132C79.2502 132 61.25 127.5 61.25 118.5C61.25 95.2473 147.5 54.5 147.5 54.5L139.25 57C139.25 57 14.7498 114 37.2501 132C43.2498 136.8 73.2502 136.5 103.25 132Z" fill="#BFBFBF"/>
<path d="M359.5 26.5C381.629 2.15773 282 -2.00001 195 30V33C268.5 4.00001 375.5 4.50001 342.5 37.5C349.139 33.2042 355.5 30.9 359.5 26.5Z" fill="#BFBFBF"/>
<path d="M129.283 0H104.75L102.108 28.5001C102.108 25.5001 100.25 21.1417 95.75 21.1417H63.3311C58.8311 21.1417 55.4816 25.1523 55.25 27.0001C54.82 24.4943 52.25 21 47.75 21H18.0578C10.5837 21 8.75 22.5001 7.25 30.0001L4.25 57.7501L0.5 93.0001H26.75L28.25 76.4999L46.25 76.5C49.25 76.4999 50.7295 72.6831 52.25 70.5C54.0875 73.196 55.25 76.5 58.25 76.5H91.25C94.25 76.5 97.437 72.0463 98.75 69.0001L97.7301 76.5H146.408L146.75 72C146.75 75 148.25 76.5 152.75 76.5L185.59 76.4999L183.203 95.9999C182.579 100.939 187.093 109.5 191.593 109.5H379.093L377.367 126L421.25 126C425.75 126 428.75 123 429.295 120L430.25 109.5H466.25C470.774 109.5 478.25 103.5 478.25 97.5L481.25 64.5C481.25 57 473.75 54 469.25 54H440.75C436.25 54 433.25 57 433.25 60C433.25 57 428.75 54 424.25 54H393.478C390.478 54 386.75 57 386.75 60C386.75 57 383.75 54 382.25 54H344.75C342.287 54 338.75 57 338.75 60C338.75 57 334.25 54 331.25 54H271.25C268.25 54 266.75 57 266.75 58.5C266.75 57 265.25 54 262.25 54H226.25C221.75 54 221.75 55.5 220.25 57L220.376 54H212.883L213.646 45.0001L197.883 45C197.883 45 199.041 32.0592 199.25 28.5C199.459 24.9408 194.873 21.1417 191.873 21.1417L127.373 21.1417L129.283 0Z" fill="#222224"/>
<path d="M188.057 96.5464L192.645 49.8179L209.637 49.7754L208.83 58.1865L217.496 58.229L216.222 70.9731L207.513 71.0156L205.389 92.2559H213.885L212.696 105L195.704 104.958C193.58 104.986 191.753 104.207 190.224 102.621C188.723 101.007 188 98.9819 188.057 96.5464ZM243.792 96.4614C226.205 102.154 226.205 102.154 243.792 96.4614V96.4614ZM263.927 63.2842L259.722 105H242.814L243.452 98.543L234.913 98.458L234.276 104.958H217.369L221.574 62.4346C221.688 61.2734 222.183 60.2964 223.061 59.5034C223.939 58.7104 224.958 58.314 226.12 58.314H259.849C260.84 58.314 261.676 58.6255 262.355 59.2485C263.517 60.2114 264.041 61.5566 263.927 63.2842ZM246.213 71.0156H237.674L236.018 87.4556L244.641 87.498L246.213 71.0156ZM277.224 58.314H328.243C330.225 58.314 332.038 59.1069 333.68 60.6929C335.323 62.2505 336.13 64.4453 336.102 67.2773L332.236 105.042L315.244 105L318.727 71.0156H310.188L306.748 105L289.883 105.042L293.281 71.0156H284.7L281.344 105L264.522 104.958L268.345 66.4277C268.572 64.1055 269.535 62.1797 271.234 60.6504C272.961 59.0928 274.958 58.314 277.224 58.314ZM363.332 96.4614C345.745 102.154 345.745 102.154 363.332 96.4614V96.4614ZM383.467 63.2842L379.262 105H362.354L362.992 98.543L354.453 98.458L353.816 104.958H336.909L341.114 62.4346C341.228 61.2734 341.723 60.2964 342.601 59.5034C343.479 58.7104 344.499 58.314 345.66 58.314H379.389C380.38 58.314 381.216 58.6255 381.896 59.2485C383.057 60.2114 383.581 61.5566 383.467 63.2842ZM365.753 71.0156H357.214L355.558 87.4556L364.181 87.498L365.753 71.0156ZM384.614 98.8828L387.97 65.4507C388.168 63.4116 389.103 61.7124 390.774 60.353C392.473 58.9937 394.47 58.314 396.764 58.314H422.252C424.291 58.314 426.16 59.0078 427.859 60.3955C429.559 61.7549 430.352 63.7798 430.238 66.4702L425.226 116.64C425.056 118.169 424.277 119.429 422.889 120.42C421.53 121.44 419.901 121.95 418.004 121.95H382.32L383.552 109.375L408.956 109.333L412.864 71.0156H404.368L402.244 92.2559H410.782L409.508 105L390.392 105.042C388.919 105.042 387.56 104.504 386.313 103.428C385.067 102.352 384.501 100.837 384.614 98.8828ZM431.895 96.5039L434.826 66.7251C435.081 64.3179 436.058 62.3213 437.757 60.7354C439.485 59.1211 441.496 58.314 443.79 58.314H469.32C471.586 58.2573 473.526 59.0078 475.14 60.5654C476.754 62.0947 477.434 64.1904 477.179 66.8525L474.163 96.5464C473.937 98.9536 472.931 100.964 471.147 102.579C469.391 104.193 467.352 105 465.03 105L441.241 104.958C438.805 104.958 436.61 104.193 434.656 102.664C432.73 101.106 431.81 99.0527 431.895 96.5039ZM459.805 71.0156H451.351L449.227 92.2134L457.723 92.2559L459.805 71.0156Z" fill="white"/>
<path d="M15.5386 24.314H45.2324C47.2432 24.314 49.084 25.0786 50.7549 26.6079C52.4258 28.1372 53.1904 30.2188 53.0488 32.8525L49.9902 63.481C49.7637 65.6333 48.8574 67.4316 47.2715 68.876C45.7139 70.3203 43.8872 71.0425 41.7915 71.0425L23.8223 71.085L25.1392 58.2983L33.5503 58.2559L35.6743 37.0156H27.2207L22.1655 87.9922L5.21582 87.9497L11.1206 28.4771C11.2339 27.2876 11.7153 26.2964 12.5649 25.5034C13.4146 24.7104 14.4058 24.314 15.5386 24.314ZM54.7905 62.5039L57.7217 32.7251C57.9766 30.3179 58.9536 28.3213 60.6528 26.7354C62.3804 25.1211 64.3911 24.314 66.6851 24.314H92.2158C94.4814 24.2573 96.4214 25.0078 98.0356 26.5654C99.6499 28.0947 100.33 30.1904 100.075 32.8525L97.0586 62.5464C96.832 64.9536 95.8267 66.9644 94.0425 68.5786C92.2866 70.1929 90.2476 71 87.9253 71L64.1362 70.9575C61.7007 70.9575 59.5059 70.1929 57.5518 68.6636C55.626 67.106 54.7056 65.0527 54.7905 62.5039ZM82.7002 37.0156H74.2466L72.1226 58.2134L80.6187 58.2559L82.7002 37.0156ZM145.741 47.8906L143.447 71H126.455L128.154 54.0928H119.446L117.789 71.0425H101.009L106.489 15.7754V15.7329L107.721 3.15869H124.756L120.933 41.4761L131.085 24.314L148.12 24.2715L137.755 41.3062H139.879C141.493 41.2778 142.994 41.8584 144.382 43.0479C145.486 43.9824 145.939 45.5967 145.741 47.8906ZM174.883 54.0503H166.684L167.661 43.9399H176.115L174.883 54.0503ZM148.715 64.7129L152.156 29.9214C152.297 28.3354 152.906 27.0044 153.982 25.9282C155.059 24.8521 156.305 24.314 157.721 24.314H188.179C190.388 24.2573 192.045 24.668 193.149 25.5459C194.254 26.3955 194.735 27.8398 194.594 29.8789L193.872 37.1006L192.215 54.0928L174.883 54.0503L176.922 37.0156H168.383L166.259 58.2134H191.748L190.431 71H152.963C151.773 70.9434 150.697 70.3062 149.734 69.0884C148.941 68.0122 148.602 66.5537 148.715 64.7129Z" fill="#EE1515"/>
<circle cx="151.25" cy="117" r="45" fill="#222224"/>
<circle cx="151.25" cy="117" r="39" fill="#EE1515"/>
<path d="M185.75 135C189.466 129.047 190.595 119.958 190.25 120C190.25 120 140.376 124.821 112.25 118.5C112.465 122.14 112.718 124.135 113.75 127.5C115.34 132.992 117.188 136.332 121.25 142.5C127.703 148.581 131.613 151.294 139.25 154.5C148.383 156.475 153.355 156.748 161.75 154.5C168.504 152.771 171.68 150.966 176.75 147C180.966 142.683 183.317 140.255 185.75 135Z" fill="#F0F0F0"/>
<ellipse cx="170.75" cy="121.5" rx="7.5" ry="10.5" fill="#222224"/>
<path d="M109.25 115.5C138.271 121.976 159.591 123.361 191.75 117" stroke="#222224" stroke-width="6"/>
<ellipse cx="170.75" cy="121.5" rx="4.5" ry="7.5" fill="#F0F0F0"/>
</svg>
