<svg width="404" height="164" viewBox="0 0 404 164" fill="none" xmlns="http://www.w3.org/2000/svg">
<g clip-path="url(#clip0_0_1)">
<path d="M8 150H120" stroke="#B31212" stroke-width="12"/>
<path d="M8 130H120" stroke="#FF1A1A" stroke-width="12"/>
<path d="M8 142H120" stroke="#CC1414" stroke-width="4"/>
<path d="M8 138H120" stroke="#E61717" stroke-width="4"/>
<path d="M5 150V130" stroke="white" stroke-width="2"/>
<path d="M7 130V126" stroke="white" stroke-width="2"/>
<path d="M9 130V126" stroke="#B21212" stroke-width="2"/>
<path d="M119 130V126" stroke="#283B5B" stroke-width="2"/>
<path d="M119 130V126" stroke="#B21212" stroke-width="2"/>
<path d="M114 125H118" stroke="#B21212" stroke-width="2"/>
<path d="M10 155H14" stroke="#B21212" stroke-width="2"/>
<path d="M114 155H118" stroke="#B21212" stroke-width="2"/>
<path d="M10 125H14" stroke="#B21212" stroke-width="2"/>
<path d="M9 154V150" stroke="#B21212" stroke-width="2"/>
<path d="M119 154V150" stroke="#B21212" stroke-width="2"/>
<path d="M7 154V150" stroke="white" stroke-width="2"/>
<path d="M10 123H14" stroke="white" stroke-width="2"/>
<path d="M10 157H14" stroke="white" stroke-width="2"/>
<path d="M9 126V124" stroke="white" stroke-width="2"/>
<path d="M5 130V128" stroke="#808080" stroke-width="2"/>
<path d="M119 158V156" stroke="#808080" stroke-width="2"/>
<path d="M121 156V154" stroke="#808080" stroke-width="2"/>
<path d="M123 152V150" stroke="#808080" stroke-width="2"/>
<path d="M115 160V158" stroke="#808080" stroke-width="2"/>
<path d="M121 126V124" stroke="#808080" stroke-width="2"/>
<path d="M119 124V122" stroke="#808080" stroke-width="2"/>
<path d="M123 130V128" stroke="#808080" stroke-width="2"/>
<path d="M115 122V120" stroke="#808080" stroke-width="2"/>
<path d="M13 160V158" stroke="#808080" stroke-width="2"/>
<path d="M9 158V156" stroke="#808080" stroke-width="2"/>
<path d="M7 156V154" stroke="#808080" stroke-width="2"/>
<path d="M5 152V150" stroke="#808080" stroke-width="2"/>
<path d="M13 122V120" stroke="#808080" stroke-width="2"/>
<path d="M9 124V122" stroke="#808080" stroke-width="2"/>
<path d="M7 126V124" stroke="#808080" stroke-width="2"/>
<path d="M9 156V154" stroke="white" stroke-width="2"/>
<path d="M123 150V130" stroke="white" stroke-width="2"/>
<path d="M121 130V126" stroke="white" stroke-width="2"/>
<path d="M121 154V150" stroke="white" stroke-width="2"/>
<path d="M114 123H118" stroke="white" stroke-width="2"/>
<path d="M114 157H118" stroke="white" stroke-width="2"/>
<path d="M119 126V124" stroke="white" stroke-width="2"/>
<path d="M119 156V154" stroke="white" stroke-width="2"/>
<path d="M14 121H114" stroke="white" stroke-width="2"/>
<path d="M14 123H114" stroke="#B21212" stroke-width="2"/>
<path d="M14 157H114" stroke="#B21212" stroke-width="2"/>
<path d="M14 159H114" stroke="white" stroke-width="2"/>
<path d="M7 130V150" stroke="#B21212" stroke-width="2"/>
<path d="M121 130V150" stroke="#B21212" stroke-width="2"/>
<path d="M2 154V126" stroke="#262626" stroke-width="4"/>
<path d="M126 154V126" stroke="#262626" stroke-width="4"/>
<path d="M4 122V128" stroke="#262626" stroke-width="4"/>
<path d="M124 122V128" stroke="#262626" stroke-width="4"/>
<path d="M124 152V158" stroke="#262626" stroke-width="4"/>
<path d="M6 120H12" stroke="#262626" stroke-width="4"/>
<path d="M116 120H122" stroke="#262626" stroke-width="4"/>
<path d="M116 160H122" stroke="#262626" stroke-width="4"/>
<path d="M12 118H116" stroke="#262626" stroke-width="4"/>
<path d="M12 162H116" stroke="#262626" stroke-width="4"/>
<path d="M6 160H12" stroke="#262626" stroke-width="4"/>
<path d="M4 152V158" stroke="#262626" stroke-width="4"/>
<path d="M6 124V120" stroke="#262626" stroke-width="4"/>
<path d="M122 124V120" stroke="#262626" stroke-width="4"/>
<path d="M122 160V156" stroke="#262626" stroke-width="4"/>
<path d="M6 160V156" stroke="#262626" stroke-width="4"/>
</g>
<g clip-path="url(#clip1_0_1)">
<path d="M8 24H120" stroke="#575A66" stroke-width="35"/>
<path d="M5 34V14" stroke="#808080" stroke-width="2"/>
<path d="M7 14V10" stroke="#808080" stroke-width="2"/>
<path d="M9 14V10" stroke="#303134" stroke-width="2"/>
<path d="M119 14V10" stroke="#283B5B" stroke-width="2"/>
<path d="M119 14V10" stroke="#303134" stroke-width="2"/>
<path d="M114 9H118" stroke="#303134" stroke-width="2"/>
<path d="M10 39H14" stroke="#303134" stroke-width="2"/>
<path d="M114 39H118" stroke="#303134" stroke-width="2"/>
<path d="M10 9H14" stroke="#303134" stroke-width="2"/>
<path d="M9 38V34" stroke="#303134" stroke-width="2"/>
<path d="M119 38V34" stroke="#303134" stroke-width="2"/>
<path d="M7 38V34" stroke="#808080" stroke-width="2"/>
<path d="M10 7H14" stroke="#808080" stroke-width="2"/>
<path d="M10 41H14" stroke="#808080" stroke-width="2"/>
<path d="M9 10V8" stroke="#808080" stroke-width="2"/>
<path d="M5 14V12" stroke="#4D4D4D" stroke-width="2"/>
<path d="M119 42V40" stroke="#4D4D4D" stroke-width="2"/>
<path d="M121 40V38" stroke="#4D4D4D" stroke-width="2"/>
<path d="M123 36V34" stroke="#4D4D4D" stroke-width="2"/>
<path d="M115 44V42" stroke="#4D4D4D" stroke-width="2"/>
<path d="M121 10V8" stroke="#4D4D4D" stroke-width="2"/>
<path d="M119 8V6" stroke="#4D4D4D" stroke-width="2"/>
<path d="M123 14V12" stroke="#4D4D4D" stroke-width="2"/>
<path d="M115 6V4" stroke="#4D4D4D" stroke-width="2"/>
<path d="M13 44V42" stroke="#4D4D4D" stroke-width="2"/>
<path d="M9 42V40" stroke="#4D4D4D" stroke-width="2"/>
<path d="M7 40V38" stroke="#4D4D4D" stroke-width="2"/>
<path d="M5 36V34" stroke="#4D4D4D" stroke-width="2"/>
<path d="M13 6V4" stroke="#4D4D4D" stroke-width="2"/>
<path d="M9 8V6" stroke="#4D4D4D" stroke-width="2"/>
<path d="M7 10V8" stroke="#4D4D4D" stroke-width="2"/>
<path d="M9 40V38" stroke="#808080" stroke-width="2"/>
<path d="M123 34V14" stroke="#808080" stroke-width="2"/>
<path d="M121 14V10" stroke="#808080" stroke-width="2"/>
<path d="M121 38V34" stroke="#808080" stroke-width="2"/>
<path d="M114 7H118" stroke="#808080" stroke-width="2"/>
<path d="M114 41H118" stroke="#808080" stroke-width="2"/>
<path d="M119 10V8" stroke="#808080" stroke-width="2"/>
<path d="M119 40V38" stroke="#808080" stroke-width="2"/>
<path d="M14 5H114" stroke="#808080" stroke-width="2"/>
<path d="M14 7H114" stroke="#303134" stroke-width="2"/>
<path d="M14 41H114" stroke="#303134" stroke-width="2"/>
<path d="M14 43H114" stroke="#808080" stroke-width="2"/>
<path d="M7 14V34" stroke="#303134" stroke-width="2"/>
<path d="M121 14V34" stroke="#303134" stroke-width="2"/>
<path d="M2 38V10" stroke="#262626" stroke-width="4"/>
<path d="M126 38V10" stroke="#262626" stroke-width="4"/>
<path d="M4 6V12" stroke="#262626" stroke-width="4"/>
<path d="M124 6V12" stroke="#262626" stroke-width="4"/>
<path d="M124 36V42" stroke="#262626" stroke-width="4"/>
<path d="M6 4H12" stroke="#262626" stroke-width="4"/>
<path d="M116 4H122" stroke="#262626" stroke-width="4"/>
<path d="M116 44H122" stroke="#262626" stroke-width="4"/>
<path d="M12 2H116" stroke="#262626" stroke-width="4"/>
<path d="M12 46H116" stroke="#262626" stroke-width="4"/>
<path d="M6 44H12" stroke="#262626" stroke-width="4"/>
<path d="M4 36V42" stroke="#262626" stroke-width="4"/>
<path d="M6 8V4" stroke="#262626" stroke-width="4"/>
<path d="M122 8V4" stroke="#262626" stroke-width="4"/>
<path d="M122 44V40" stroke="#262626" stroke-width="4"/>
<path d="M6 44V40" stroke="#262626" stroke-width="4"/>
</g>
<g clip-path="url(#clip2_0_1)">
<path d="M8 92H120" stroke="#303134" stroke-width="12"/>
<path d="M8 72H120" stroke="#767880" stroke-width="12"/>
<path d="M8 84H120" stroke="#47484D" stroke-width="4"/>
<path d="M8 80H120" stroke="#5E6066" stroke-width="4"/>
<path d="M5 92V72" stroke="white" stroke-width="2"/>
<path d="M7 72V68" stroke="white" stroke-width="2"/>
<path d="M9 72V68" stroke="#303134" stroke-width="2"/>
<path d="M119 72V68" stroke="#283B5B" stroke-width="2"/>
<path d="M119 72V68" stroke="#303134" stroke-width="2"/>
<path d="M114 67H118" stroke="#303134" stroke-width="2"/>
<path d="M10 97H14" stroke="#303134" stroke-width="2"/>
<path d="M114 97H118" stroke="#303134" stroke-width="2"/>
<path d="M10 67H14" stroke="#303134" stroke-width="2"/>
<path d="M9 96V92" stroke="#303134" stroke-width="2"/>
<path d="M119 96V92" stroke="#303134" stroke-width="2"/>
<path d="M7 96V92" stroke="white" stroke-width="2"/>
<path d="M10 65H14" stroke="white" stroke-width="2"/>
<path d="M10 99H14" stroke="white" stroke-width="2"/>
<path d="M9 68V66" stroke="white" stroke-width="2"/>
<path d="M5 72V70" stroke="#808080" stroke-width="2"/>
<path d="M119 100V98" stroke="#808080" stroke-width="2"/>
<path d="M121 98V96" stroke="#808080" stroke-width="2"/>
<path d="M123 94V92" stroke="#808080" stroke-width="2"/>
<path d="M115 102V100" stroke="#808080" stroke-width="2"/>
<path d="M121 68V66" stroke="#808080" stroke-width="2"/>
<path d="M119 66V64" stroke="#808080" stroke-width="2"/>
<path d="M123 72V70" stroke="#808080" stroke-width="2"/>
<path d="M115 64V62" stroke="#808080" stroke-width="2"/>
<path d="M13 102V100" stroke="#808080" stroke-width="2"/>
<path d="M9 100V98" stroke="#808080" stroke-width="2"/>
<path d="M7 98V96" stroke="#808080" stroke-width="2"/>
<path d="M5 94V92" stroke="#808080" stroke-width="2"/>
<path d="M13 64V62" stroke="#808080" stroke-width="2"/>
<path d="M9 66V64" stroke="#808080" stroke-width="2"/>
<path d="M7 68V66" stroke="#808080" stroke-width="2"/>
<path d="M9 98V96" stroke="white" stroke-width="2"/>
<path d="M123 92V72" stroke="white" stroke-width="2"/>
<path d="M121 72V68" stroke="white" stroke-width="2"/>
<path d="M121 96V92" stroke="white" stroke-width="2"/>
<path d="M114 65H118" stroke="white" stroke-width="2"/>
<path d="M114 99H118" stroke="white" stroke-width="2"/>
<path d="M119 68V66" stroke="white" stroke-width="2"/>
<path d="M119 98V96" stroke="white" stroke-width="2"/>
<path d="M14 63H114" stroke="white" stroke-width="2"/>
<path d="M14 65H114" stroke="#303134" stroke-width="2"/>
<path d="M14 99H114" stroke="#303134" stroke-width="2"/>
<path d="M14 101H114" stroke="white" stroke-width="2"/>
<path d="M7 72V92" stroke="#303134" stroke-width="2"/>
<path d="M121 72V92" stroke="#303134" stroke-width="2"/>
<path d="M2 96V68" stroke="#262626" stroke-width="4"/>
<path d="M126 96V68" stroke="#262626" stroke-width="4"/>
<path d="M4 64V70" stroke="#262626" stroke-width="4"/>
<path d="M124 64V70" stroke="#262626" stroke-width="4"/>
<path d="M124 94V100" stroke="#262626" stroke-width="4"/>
<path d="M6 62H12" stroke="#262626" stroke-width="4"/>
<path d="M116 62H122" stroke="#262626" stroke-width="4"/>
<path d="M116 102H122" stroke="#262626" stroke-width="4"/>
<path d="M12 60H116" stroke="#262626" stroke-width="4"/>
<path d="M12 104H116" stroke="#262626" stroke-width="4"/>
<path d="M6 102H12" stroke="#262626" stroke-width="4"/>
<path d="M4 94V100" stroke="#262626" stroke-width="4"/>
<path d="M6 66V62" stroke="#262626" stroke-width="4"/>
<path d="M122 66V62" stroke="#262626" stroke-width="4"/>
<path d="M122 102V98" stroke="#262626" stroke-width="4"/>
<path d="M6 102V98" stroke="#262626" stroke-width="4"/>
</g>
<g clip-path="url(#clip3_0_1)">
<path d="M146 92H258" stroke="#283B5B" stroke-width="12"/>
<path d="M146 72H258" stroke="#4A6DA8" stroke-width="12"/>
<path d="M146 84H258" stroke="#344C75" stroke-width="4"/>
<path d="M146 80H258" stroke="#3F5D8F" stroke-width="4"/>
<path d="M143 92V72" stroke="white" stroke-width="2"/>
<path d="M145 72V68" stroke="white" stroke-width="2"/>
<path d="M147 72V68" stroke="#283B5B" stroke-width="2"/>
<path d="M257 72V68" stroke="#283B5B" stroke-width="2"/>
<path d="M257 72V68" stroke="#283B5B" stroke-width="2"/>
<path d="M252 67H256" stroke="#283B5B" stroke-width="2"/>
<path d="M148 97H152" stroke="#283B5B" stroke-width="2"/>
<path d="M252 97H256" stroke="#283B5B" stroke-width="2"/>
<path d="M148 67H152" stroke="#283B5B" stroke-width="2"/>
<path d="M147 96V92" stroke="#283B5B" stroke-width="2"/>
<path d="M257 96V92" stroke="#283B5B" stroke-width="2"/>
<path d="M145 96V92" stroke="white" stroke-width="2"/>
<path d="M148 65H152" stroke="white" stroke-width="2"/>
<path d="M148 99H152" stroke="white" stroke-width="2"/>
<path d="M147 68V66" stroke="white" stroke-width="2"/>
<path d="M143 72V70" stroke="#808080" stroke-width="2"/>
<path d="M257 100V98" stroke="#808080" stroke-width="2"/>
<path d="M259 98V96" stroke="#808080" stroke-width="2"/>
<path d="M261 94V92" stroke="#808080" stroke-width="2"/>
<path d="M253 102V100" stroke="#808080" stroke-width="2"/>
<path d="M259 68V66" stroke="#808080" stroke-width="2"/>
<path d="M257 66V64" stroke="#808080" stroke-width="2"/>
<path d="M261 72V70" stroke="#808080" stroke-width="2"/>
<path d="M253 64V62" stroke="#808080" stroke-width="2"/>
<path d="M151 102V100" stroke="#808080" stroke-width="2"/>
<path d="M147 100V98" stroke="#808080" stroke-width="2"/>
<path d="M145 98V96" stroke="#808080" stroke-width="2"/>
<path d="M143 94V92" stroke="#808080" stroke-width="2"/>
<path d="M151 64V62" stroke="#808080" stroke-width="2"/>
<path d="M147 66V64" stroke="#808080" stroke-width="2"/>
<path d="M145 68V66" stroke="#808080" stroke-width="2"/>
<path d="M147 98V96" stroke="white" stroke-width="2"/>
<path d="M261 92V72" stroke="white" stroke-width="2"/>
<path d="M259 72V68" stroke="white" stroke-width="2"/>
<path d="M259 96V92" stroke="white" stroke-width="2"/>
<path d="M252 65H256" stroke="white" stroke-width="2"/>
<path d="M252 99H256" stroke="white" stroke-width="2"/>
<path d="M257 68V66" stroke="white" stroke-width="2"/>
<path d="M257 98V96" stroke="white" stroke-width="2"/>
<path d="M152 63H252" stroke="white" stroke-width="2"/>
<path d="M152 65H252" stroke="#283B5B" stroke-width="2"/>
<path d="M152 99H252" stroke="#283B5B" stroke-width="2"/>
<path d="M152 101H252" stroke="white" stroke-width="2"/>
<path d="M145 72V92" stroke="#283B5B" stroke-width="2"/>
<path d="M259 72V92" stroke="#283B5B" stroke-width="2"/>
<path d="M140 96V68" stroke="#262626" stroke-width="4"/>
<path d="M264 96V68" stroke="#262626" stroke-width="4"/>
<path d="M142 64V70" stroke="#262626" stroke-width="4"/>
<path d="M262 64V70" stroke="#262626" stroke-width="4"/>
<path d="M262 94V100" stroke="#262626" stroke-width="4"/>
<path d="M144 62H150" stroke="#262626" stroke-width="4"/>
<path d="M254 62H260" stroke="#262626" stroke-width="4"/>
<path d="M254 102H260" stroke="#262626" stroke-width="4"/>
<path d="M150 60H254" stroke="#262626" stroke-width="4"/>
<path d="M150 104H254" stroke="#262626" stroke-width="4"/>
<path d="M144 102H150" stroke="#262626" stroke-width="4"/>
<path d="M142 94V100" stroke="#262626" stroke-width="4"/>
<path d="M144 66V62" stroke="#262626" stroke-width="4"/>
<path d="M260 66V62" stroke="#262626" stroke-width="4"/>
<path d="M260 102V98" stroke="#262626" stroke-width="4"/>
<path d="M144 102V98" stroke="#262626" stroke-width="4"/>
</g>
<g clip-path="url(#clip4_0_1)">
<path d="M284 92H396" stroke="#BFBFB2" stroke-width="12"/>
<path d="M284 72H396" stroke="#FFFFEE" stroke-width="12"/>
<path d="M284 84H396" stroke="#D9D9CA" stroke-width="4"/>
<path d="M284 80H396" stroke="#F2F2E2" stroke-width="4"/>
<path d="M281 92V72" stroke="white" stroke-width="2"/>
<path d="M283 72V68" stroke="white" stroke-width="2"/>
<path d="M285 72V68" stroke="#BFBFB2" stroke-width="2"/>
<path d="M395 72V68" stroke="#283B5B" stroke-width="2"/>
<path d="M395 72V68" stroke="#BFBFB2" stroke-width="2"/>
<path d="M390 67H394" stroke="#BFBFB2" stroke-width="2"/>
<path d="M286 97H290" stroke="#BFBFB2" stroke-width="2"/>
<path d="M390 97H394" stroke="#BFBFB2" stroke-width="2"/>
<path d="M286 67H290" stroke="#BFBFB2" stroke-width="2"/>
<path d="M285 96V92" stroke="#BFBFB2" stroke-width="2"/>
<path d="M395 96V92" stroke="#BFBFB2" stroke-width="2"/>
<path d="M283 96V92" stroke="white" stroke-width="2"/>
<path d="M286 65H290" stroke="white" stroke-width="2"/>
<path d="M286 99H290" stroke="white" stroke-width="2"/>
<path d="M285 68V66" stroke="white" stroke-width="2"/>
<path d="M281 72V70" stroke="#808080" stroke-width="2"/>
<path d="M395 100V98" stroke="#808080" stroke-width="2"/>
<path d="M397 98V96" stroke="#808080" stroke-width="2"/>
<path d="M399 94V92" stroke="#808080" stroke-width="2"/>
<path d="M391 102V100" stroke="#808080" stroke-width="2"/>
<path d="M397 68V66" stroke="#808080" stroke-width="2"/>
<path d="M395 66V64" stroke="#808080" stroke-width="2"/>
<path d="M399 72V70" stroke="#808080" stroke-width="2"/>
<path d="M391 64V62" stroke="#808080" stroke-width="2"/>
<path d="M289 102V100" stroke="#808080" stroke-width="2"/>
<path d="M285 100V98" stroke="#808080" stroke-width="2"/>
<path d="M283 98V96" stroke="#808080" stroke-width="2"/>
<path d="M281 94V92" stroke="#808080" stroke-width="2"/>
<path d="M289 64V62" stroke="#808080" stroke-width="2"/>
<path d="M285 66V64" stroke="#808080" stroke-width="2"/>
<path d="M283 68V66" stroke="#808080" stroke-width="2"/>
<path d="M285 98V96" stroke="white" stroke-width="2"/>
<path d="M399 92V72" stroke="white" stroke-width="2"/>
<path d="M397 72V68" stroke="white" stroke-width="2"/>
<path d="M397 96V92" stroke="white" stroke-width="2"/>
<path d="M390 65H394" stroke="white" stroke-width="2"/>
<path d="M390 99H394" stroke="white" stroke-width="2"/>
<path d="M395 68V66" stroke="white" stroke-width="2"/>
<path d="M395 98V96" stroke="white" stroke-width="2"/>
<path d="M290 63H390" stroke="white" stroke-width="2"/>
<path d="M290 65H390" stroke="#BFBFB2" stroke-width="2"/>
<path d="M290 99H390" stroke="#BFBFB2" stroke-width="2"/>
<path d="M290 101H390" stroke="white" stroke-width="2"/>
<path d="M283 72V92" stroke="#BFBFB2" stroke-width="2"/>
<path d="M397 72V92" stroke="#BFBFB2" stroke-width="2"/>
<path d="M278 96V68" stroke="#262626" stroke-width="4"/>
<path d="M402 96V68" stroke="#262626" stroke-width="4"/>
<path d="M280 64V70" stroke="#262626" stroke-width="4"/>
<path d="M400 64V70" stroke="#262626" stroke-width="4"/>
<path d="M400 94V100" stroke="#262626" stroke-width="4"/>
<path d="M282 62H288" stroke="#262626" stroke-width="4"/>
<path d="M392 62H398" stroke="#262626" stroke-width="4"/>
<path d="M392 102H398" stroke="#262626" stroke-width="4"/>
<path d="M288 60H392" stroke="#262626" stroke-width="4"/>
<path d="M288 104H392" stroke="#262626" stroke-width="4"/>
<path d="M282 102H288" stroke="#262626" stroke-width="4"/>
<path d="M280 94V100" stroke="#262626" stroke-width="4"/>
<path d="M282 66V62" stroke="#262626" stroke-width="4"/>
<path d="M398 66V62" stroke="#262626" stroke-width="4"/>
<path d="M398 102V98" stroke="#262626" stroke-width="4"/>
<path d="M282 102V98" stroke="#262626" stroke-width="4"/>
</g>
<defs>
<clipPath id="clip0_0_1">
<rect width="128" height="48" fill="white" transform="translate(0 116)"/>
</clipPath>
<clipPath id="clip1_0_1">
<rect width="128" height="48" fill="white"/>
</clipPath>
<clipPath id="clip2_0_1">
<rect width="128" height="48" fill="white" transform="translate(0 58)"/>
</clipPath>
<clipPath id="clip3_0_1">
<rect width="128" height="48" fill="white" transform="translate(138 58)"/>
</clipPath>
<clipPath id="clip4_0_1">
<rect width="128" height="48" fill="white" transform="translate(276 58)"/>
</clipPath>
</defs>
</svg>
